<svg width="47" height="40" viewBox="0 0 47 40" fill="none" xmlns="http://www.w3.org/2000/svg">
<path d="M30.7447 0H15.2553C12.9052 0 11 1.82579 11 4.07801V18.922C11 21.1742 12.9052 23 15.2553 23H30.7447C33.0948 23 35 21.1742 35 18.922V4.07801C35 1.82579 33.0948 0 30.7447 0Z" fill="white"/>
<path d="M23.2238 10.5148C22.8902 10.5148 22.59 10.4668 22.3231 10.3709C22.0562 10.2697 21.8282 10.1258 21.6392 9.93926C21.4557 9.75273 21.3139 9.52632 21.2138 9.25986C21.1137 8.99341 21.0637 8.69237 21.0637 8.35667C21.0637 8.02096 21.1137 7.7199 21.2138 7.45347C21.3139 7.18703 21.4557 6.96057 21.6392 6.77407C21.8282 6.58757 22.0562 6.44636 22.3231 6.35045C22.59 6.24921 22.8902 6.19858 23.2238 6.19858C23.5575 6.19858 23.8577 6.24921 24.1246 6.35045C24.3915 6.44636 24.6167 6.58757 24.8002 6.77407C24.9892 6.96057 25.1338 7.18703 25.2339 7.45347C25.334 7.7199 25.384 8.02096 25.384 8.35667C25.384 8.69237 25.334 8.99341 25.2339 9.25986C25.1338 9.52632 24.9892 9.75273 24.8002 9.93926C24.6167 10.1258 24.3915 10.2697 24.1246 10.3709C23.8577 10.4668 23.5575 10.5148 23.2238 10.5148ZM23.2238 9.63553C23.5019 9.63553 23.7187 9.55291 23.8744 9.38775C24.0301 9.22259 24.1079 8.98811 24.1079 8.68438V8.02896C24.1079 7.72523 24.0301 7.49077 23.8744 7.32558C23.7187 7.1604 23.5019 7.0778 23.2238 7.0778C22.9458 7.0778 22.7289 7.1604 22.5733 7.32558C22.4176 7.49077 22.3398 7.72523 22.3398 8.02896V8.68438C22.3398 8.98811 22.4176 9.22259 22.5733 9.38775C22.7289 9.55291 22.9458 9.63553 23.2238 9.63553Z" fill="#11161A"/>
<path d="M18.4055 11.1506L18.5063 8.79677H18.3929L16.7555 13.1302L15.118 8.79677H15.0046L15.1054 11.1506V14.9047H13.468V6.47915H15.6974L16.7807 9.31582H16.8814L17.9646 6.47915H20.0429V14.9047H18.4055V11.1506Z" fill="#11161A"/>
<path d="M20.0254 16.8145V15.3539H26.0713V16.8145H20.0254Z" fill="#11161A"/>
<path d="M26.2429 6.47915H29.0769C30.2609 6.47915 31.1385 6.84128 31.7094 7.56553C32.2805 8.28979 32.566 9.33188 32.566 10.6919C32.566 12.0519 32.2805 13.094 31.7094 13.8183C31.1385 14.5425 30.2609 14.9047 29.0769 14.9047H26.2429V6.47915ZM28.951 13.4803C29.5136 13.4803 29.9251 13.3073 30.1854 12.9612C30.4457 12.6152 30.5758 12.1123 30.5758 11.4524V9.91936C30.5758 9.26753 30.4457 8.76863 30.1854 8.42257C29.9251 8.07653 29.5136 7.90352 28.951 7.90352H28.1071V13.4803H28.951Z" fill="#11161A"/>
<path d="M23.2238 15.0006C22.8902 15.0006 22.59 14.9526 22.3231 14.8567C22.0562 14.7555 21.8282 14.6116 21.6392 14.4251C21.4557 14.2386 21.3139 14.0121 21.2138 13.7457C21.1137 13.4792 21.0637 13.1782 21.0637 12.8425C21.0637 12.5068 21.1137 12.2057 21.2138 11.9393C21.3139 11.6728 21.4557 11.4464 21.6392 11.2599C21.8282 11.0734 22.0562 10.9322 22.3231 10.8363C22.59 10.735 22.8902 10.6844 23.2238 10.6844C23.5575 10.6844 23.8577 10.735 24.1246 10.8363C24.3915 10.9322 24.6167 11.0734 24.8002 11.2599C24.9892 11.4464 25.1338 11.6728 25.2339 11.9393C25.334 12.2057 25.384 12.5068 25.384 12.8425C25.384 13.1782 25.334 13.4792 25.2339 13.7457C25.1338 14.0121 24.9892 14.2386 24.8002 14.4251C24.6167 14.6116 24.3915 14.7555 24.1246 14.8567C23.8577 14.9526 23.5575 15.0006 23.2238 15.0006ZM23.2238 14.1213C23.5019 14.1213 23.7187 14.0387 23.8744 13.8736C24.0301 13.7084 24.1079 13.4739 24.1079 13.1702V12.5148C24.1079 12.211 24.0301 11.9766 23.8744 11.8114C23.7187 11.6462 23.5019 11.5636 23.2238 11.5636C22.9458 11.5636 22.7289 11.6462 22.5733 11.8114C22.4176 11.9766 22.3398 12.211 22.3398 12.5148V13.1702C22.3398 13.4739 22.4176 13.7084 22.5733 13.8736C22.7289 14.0387 22.9458 14.1213 23.2238 14.1213Z" fill="#11161A"/>
<path d="M4.43682 35.8289L4.52737 33.6278H4.4255L2.95411 37.6802L1.48271 33.6278H1.38085L1.4714 35.8289V39.3395H0V31.4605H2.00336L2.97675 34.1132H3.06729L4.04068 31.4605H5.90822V39.3395H4.43682V35.8289Z" fill="white"/>
<path d="M9.74074 39.475C8.68436 39.475 7.90338 39.1175 7.39783 38.4026C6.89982 37.6877 6.65081 36.6868 6.65081 35.4C6.65081 34.1132 6.89982 33.1123 7.39783 32.3974C7.90338 31.6825 8.68436 31.325 9.74074 31.325C10.7971 31.325 11.5743 31.6825 12.0723 32.3974C12.5779 33.1123 12.8307 34.1132 12.8307 35.4C12.8307 36.6868 12.5779 37.6877 12.0723 38.4026C11.5743 39.1175 10.7971 39.475 9.74074 39.475ZM9.74074 38.1091C10.2237 38.1091 10.5557 37.9323 10.7368 37.5786C10.9254 37.2174 11.0197 36.7169 11.0197 36.0773V34.7114C11.0197 34.0793 10.9254 33.5864 10.7368 33.2327C10.5557 32.8715 10.2237 32.6909 9.74074 32.6909C9.25782 32.6909 8.92204 32.8715 8.7334 33.2327C8.55231 33.5864 8.46176 34.0793 8.46176 34.7114V36.0886C8.46176 36.7207 8.55231 37.2174 8.7334 37.5786C8.92204 37.9323 9.25782 38.1091 9.74074 38.1091Z" fill="white"/>
<path d="M16.5274 39.475C15.471 39.475 14.69 39.1175 14.1845 38.4026C13.6865 37.6877 13.4374 36.6868 13.4374 35.4C13.4374 34.1132 13.6865 33.1123 14.1845 32.3974C14.69 31.6825 15.471 31.325 16.5274 31.325C17.5838 31.325 18.361 31.6825 18.859 32.3974C19.3645 33.1123 19.6173 34.1132 19.6173 35.4C19.6173 36.6868 19.3645 37.6877 18.859 38.4026C18.361 39.1175 17.5838 39.475 16.5274 39.475ZM16.5274 38.1091C17.0103 38.1091 17.3423 37.9323 17.5234 37.5786C17.712 37.2174 17.8064 36.7169 17.8064 36.0773V34.7114C17.8064 34.0793 17.712 33.5864 17.5234 33.2327C17.3423 32.8715 17.0103 32.6909 16.5274 32.6909C16.0445 32.6909 15.7087 32.8715 15.52 33.2327C15.3389 33.5864 15.2484 34.0793 15.2484 34.7114V36.0886C15.2484 36.7207 15.3389 37.2174 15.52 37.5786C15.7087 37.9323 16.0445 38.1091 16.5274 38.1091Z" fill="white"/>
<path d="M20.6429 31.4605H23.1895C24.2534 31.4605 25.042 31.7991 25.5551 32.4764C26.0682 33.1537 26.3247 34.1282 26.3247 35.4C26.3247 36.6718 26.0682 37.6463 25.5551 38.3236C25.042 39.0009 24.2534 39.3395 23.1895 39.3395H20.6429V31.4605ZM23.0763 38.0075C23.5819 38.0075 23.9516 37.8457 24.1855 37.5222C24.4194 37.1986 24.5364 36.7282 24.5364 36.1111V34.6776C24.5364 34.068 24.4194 33.6014 24.1855 33.2778C23.9516 32.9542 23.5819 32.7924 23.0763 32.7924H22.318V38.0075H23.0763Z" fill="white"/>
<path d="M30.9495 32.8489V39.3395H29.2518V32.8489H26.9768V31.4605H33.2245V32.8489H30.9495Z" fill="white"/>
<path d="M38.4153 39.3395L37.9173 37.4431H35.7554L35.2687 39.3395H33.5483L35.6875 31.4605H38.087L40.2262 39.3395H38.4153ZM36.8873 33.0972H36.7967L36.0271 36.0773H37.6569L36.8873 33.0972Z" fill="white"/>
<path d="M41.1499 31.4605H43.9229C44.7001 31.4605 45.2924 31.6486 45.6999 32.0249C46.1149 32.4011 46.3224 32.9129 46.3224 33.56C46.3224 34.0116 46.2092 34.3728 45.9829 34.6437C45.764 34.9071 45.4471 35.099 45.0321 35.2194V35.2871C45.5226 35.4075 45.8999 35.6182 46.164 35.9192C46.4356 36.2203 46.5714 36.6379 46.5714 37.1722C46.5714 37.8345 46.3601 38.3612 45.9376 38.7526C45.5226 39.1439 44.9378 39.3395 44.1832 39.3395H41.1499V31.4605ZM43.6626 38.1543C44.0701 38.1543 44.3681 38.0866 44.5567 37.9511C44.7454 37.8156 44.8397 37.5673 44.8397 37.2061V36.8787C44.8397 36.5175 44.7454 36.2692 44.5567 36.1337C44.3681 35.9983 44.0701 35.9305 43.6626 35.9305H42.8024V38.1543H43.6626ZM43.4475 34.8017C43.8475 34.8017 44.138 34.7378 44.3191 34.6098C44.5002 34.4744 44.5907 34.2336 44.5907 33.8874V33.5488C44.5907 33.2026 44.5002 32.9655 44.3191 32.8376C44.138 32.7097 43.8475 32.6457 43.4475 32.6457H42.8024V34.8017H43.4475Z" fill="white"/>
</svg>
